HIERARCHY
ROOT Hips
{
	OFFSET 0.000000 0.862444 0.000000
	CHANNELS 6 Xposition Yposition Zposition Zrotation Yrotation Xrotation 
	JOINT LeftUpperLeg
	{
		OFFSET 0.056349 -0.048287 -0.000496
		CHANNELS 3 Zrotation Yrotation Xrotation
		JOINT LeftLowerLeg
		{
			OFFSET -0.006470 -0.344281 0.186042
			CHANNELS 3 Zrotation Yrotation Xrotation
			JOINT LeftFoot
			{
				OFFSET 0.022235 -0.405908 -0.136696
				CHANNELS 3 Zrotation Yrotation Xrotation
				End Site #name: L_Foot
				{
					OFFSET -0.027921 -0.051819 0.124893
				}
			}
		}
	}
	JOINT RightUpperLeg
	{
		OFFSET -0.052363 -0.053725 -0.017424
		CHANNELS 3 Zrotation Yrotation Xrotation
		JOINT RightLowerLeg
		{
			OFFSET -0.050426 -0.390788 -0.041645
			CHANNELS 3 Zrotation Yrotation Xrotation
			JOINT RightFoot
			{
				OFFSET 0.074547 -0.251639 -0.330655
				CHANNELS 3 Zrotation Yrotation Xrotation
				End Site #name: R_Foot
				{
					OFFSET -0.004435 -0.142018 -0.007805
				}
			}
		}
	}
	JOINT Spine
	{
		OFFSET 0.010227 0.174102 -0.035566
		CHANNELS 3 Zrotation Yrotation Xrotation
		JOINT Chest
		{
			OFFSET 0.010316 0.106210 0.056244
			CHANNELS 3 Zrotation Yrotation Xrotation
			JOINT UpperChest
			{
				OFFSET -0.000534 0.037944 0.015258
				CHANNELS 3 Zrotation Yrotation Xrotation
				JOINT Neck
				{
					OFFSET -0.005716 0.205626 0.048829
					CHANNELS 3 Zrotation Yrotation Xrotation
					End Site #name: Head
					{
						OFFSET 0.009907 0.087244 0.035103
					}
				}
				JOINT LeftShoulder
				{
					OFFSET 0.074174 0.097575 0.020461
					CHANNELS 3 Zrotation Yrotation Xrotation
					JOINT LeftUpperArm
					{
						OFFSET 0.127674 0.014332 -0.020453
						CHANNELS 3 Zrotation Yrotation Xrotation
						JOINT LeftLowerArm
						{
							OFFSET 0.055102 -0.197508 -0.121566
							CHANNELS 3 Zrotation Yrotation Xrotation
							End Site #name: L_Wrist
							{
								OFFSET -0.110671 -0.156253 0.192970
							}
						}
					}
				}
				JOINT RightShoulder
				{
					OFFSET -0.083492 0.104324 0.019162
					CHANNELS 3 Zrotation Yrotation Xrotation
					JOINT RightUpperArm
					{
						OFFSET -0.120088 0.008107 -0.002647
						CHANNELS 3 Zrotation Yrotation Xrotation
						JOINT RightLowerArm
						{
							OFFSET -0.022620 -0.247331 -0.014096
							CHANNELS 3 Zrotation Yrotation Xrotation
							End Site #name: R_Wrist
							{
								OFFSET -0.039090 -0.177487 0.203862
							}
						}
					}
				}
			}
		}
	}
}
MOTION
Frames: 17
Frame Time: 0.041667
0.000000 0.862444 0.000000 -0.003650 -0.002840 -0.000283 0.008140 0.004388 0.000550 0.000000 0.000000 0.000000 0.000000 0.000000 0.000000 0.000000 0.000000 0.000000 0.000894 0.001131 0.007781 0.004271 0.000143 -0.012089 0.000000 0.000000 0.000000 0.014800 -0.005919 0.002295 -0.006147 0.001551 -0.001007 0.000000 0.000000 0.000000 0.000000 0.000000 0.000000 0.000000 0.000000 0.000000 0.000000 0.000000 0.000000 -0.005333 0.007622 0.000632 0.003404 0.001179 -0.015011 0.000000 0.000000 0.000000 
-0.001194 0.859282 0.060530 0.510537 -0.373960 -0.783013 -0.699064 -0.431805 5.072292 0.647235 -0.127386 1.856933 -0.465279 2.375206 -5.983936 -1.005612 0.630445 -4.376428 1.310874 1.888442 11.762899 -2.018936 0.026626 6.196977 0.177155 0.178125 -2.778227 1.389917 -0.558835 0.730612 -2.739795 0.058353 -0.489237 3.276539 -1.630175 2.070932 -0.285497 -0.912636 0.059081 -0.542107 0.111820 -0.780795 3.782801 2.158872 3.353553 -0.957365 -2.605807 -0.132920 0.264039 -0.285580 2.879697 -0.112421 1.363081 -6.401369 
-0.004708 0.870429 0.118411 0.390879 -0.487346 -1.807003 -0.419131 -0.397101 12.811444 0.338894 -0.185428 -1.391034 -1.212308 1.898353 -8.487703 -0.933828 1.348235 -10.421482 3.134288 1.426224 19.298480 -6.278492 0.462485 4.941465 0.953048 -0.099245 -3.827799 2.345340 -0.936936 -0.619951 -5.045667 -0.185806 -0.112895 4.709543 -2.569881 4.044142 -0.104080 -2.797819 0.301212 -1.400529 0.575645 -0.979859 7.462119 2.707787 8.264705 -1.916894 -5.778197 -0.250827 0.722614 -0.430842 3.972869 -0.818458 1.580050 -10.985666 
-0.010015 0.892633 0.174873 -0.639997 -0.279299 -2.620671 2.136436 0.311915 21.407465 -0.937109 -0.171416 -7.784892 -1.815569 -0.905693 -6.863326 -0.360543 2.206680 -17.383795 3.976248 0.203469 20.370789 -11.271608 0.686786 0.994649 2.166912 -0.632990 -4.333596 3.860908 -1.479775 -2.923170 -7.657046 -0.194122 1.025977 6.025454 -3.505004 5.924807 0.741740 -4.168871 0.562885 -2.122548 1.069147 -0.801039 10.475785 1.963460 13.500931 -2.817971 -8.736628 -0.312443 0.849480 -0.507262 4.623103 -1.754271 1.358880 -15.366582 
-0.016757 0.914915 0.230182 -2.026417 0.189735 -2.931391 6.022125 0.942440 29.840799 -2.710252 -0.347298 -16.164871 -2.579543 -5.079346 -2.622554 0.264237 3.095409 -23.958405 3.617492 -0.964381 14.827795 -16.776427 0.411745 -4.421443 3.327629 -1.074547 -5.266205 5.454241 -1.976665 -5.348513 -10.033445 -0.211690 2.417173 7.428596 -4.531726 7.743068 1.869590 -5.442732 0.826861 -2.838511 1.661741 -0.310482 12.726414 -0.040498 19.127029 -3.868726 -11.866217 -0.314965 0.889274 -0.595892 5.470319 -2.655833 0.884282 -18.957905 
-0.024482 0.929035 0.283798 -3.256039 0.849805 -2.566458 9.755126 1.085251 37.098318 -4.787515 -0.717879 -24.287434 -3.424732 -8.947230 2.662768 0.219785 3.761424 -29.059551 1.896802 -1.916255 2.199073 -20.287993 -0.218502 -9.104535 4.202782 -1.324989 -6.469031 6.249331 -2.167813 -7.175699 -11.264496 -0.477724 3.543326 8.721452 -5.400977 8.805925 2.690750 -6.697908 1.033318 -3.233624 2.249656 0.756062 13.762687 -2.235142 23.427401 -4.907827 -15.267534 -0.268788 1.101769 -0.720518 6.471374 -3.526368 0.243027 -22.110900 
-0.033055 0.933242 0.336443 -3.742641 1.522004 -1.733385 12.640933 0.869930 42.723828 -7.183094 -1.227009 -31.196960 -4.311295 -12.272103 8.959063 -0.249689 3.902871 -30.719982 -1.663502 -2.885985 -18.072900 -19.979016 -0.346552 -10.045507 4.104525 -1.181238 -7.195507 6.382956 -2.161822 -8.218548 -11.336734 -0.956093 3.975289 9.208035 -5.712483 9.095559 3.351326 -7.373007 1.157954 -3.224552 2.725351 2.234934 14.029349 -3.839589 26.025673 -6.257459 -18.356610 -0.099051 1.497268 -0.888529 7.630613 -4.847334 -1.369238 -25.103575 
-0.042619 0.925336 0.390387 -2.874871 2.653571 -0.990433 14.342686 0.524564 46.651131 -7.957984 -1.556406 -34.298373 -6.602492 -17.193299 16.422598 -0.516413 3.728346 -29.688878 -5.737465 -3.265253 -33.824853 -15.716692 -0.059653 -8.686195 2.296861 -0.150995 -9.022920 5.893342 -1.986821 -8.626677 -10.922283 -1.242301 5.411538 8.898573 -5.733113 9.901585 4.082980 -8.234279 1.295978 -1.640073 2.425534 4.589622 12.299154 -5.337123 26.144734 -6.525551 -21.136739 -0.079825 0.109924 -0.789567 8.424043 -5.790695 -2.514474 -27.913884 
-0.052566 0.913202 0.447561 -3.125635 3.230696 -1.391429 15.566427 0.305666 48.811426 -5.456032 -1.335736 -31.384584 -9.448036 -21.547198 19.374732 -0.058520 3.958416 -30.900600 -3.559750 -3.141320 -26.280163 -13.729510 0.074891 -7.646156 2.788796 -0.151883 -10.817780 5.156812 -1.770445 -8.148596 -10.656118 -1.067306 5.942882 7.854531 -5.448197 11.112132 4.642968 -7.506508 1.290943 -1.030319 2.849026 7.271540 11.753075 -4.194090 23.748539 -6.827470 -21.474680 -0.019847 -1.308700 -0.638699 8.867422 -5.493328 -1.526420 -29.716585 
-0.062342 0.906452 0.504267 -3.992562 3.622481 -2.151227 16.904126 0.545354 47.932748 -2.788078 -1.100264 -26.381405 -12.236285 -25.083201 24.862144 0.453421 4.139031 -31.596156 -0.924127 -3.276991 -16.693848 -15.152998 -0.463644 -12.779152 3.776849 -0.490717 -11.382199 4.325702 -1.558160 -6.208862 -9.614969 -1.023012 5.377059 6.580021 -4.897960 11.743578 4.263104 -6.033448 1.141225 -0.363391 2.867412 8.860526 11.614818 -2.782264 21.507741 -5.065080 -19.693357 -0.348856 -3.394517 -0.264072 7.386855 -4.951249 -1.098879 -27.083465 
-0.070869 0.904827 0.556138 -4.804868 3.839843 -3.047744 17.380336 1.275280 43.844939 0.531663 -0.982478 -16.886005 -13.857066 -26.118296 35.766302 2.014521 4.040047 -29.089025 -0.038700 -3.248881 -12.674834 -17.044699 -1.235882 -18.357601 4.627255 -0.860749 -11.230456 4.279034 -1.588787 -4.563743 -8.785206 -0.653905 4.678978 4.613123 -3.921281 12.171236 3.673978 -4.185972 0.926624 -0.202524 2.767479 8.919119 11.715878 -1.956090 20.460629 -3.216160 -15.984414 -0.560710 -4.802453 -0.014269 5.813363 -3.987163 -0.525511 -22.208337 
-0.077304 0.908305 0.601529 -5.234382 3.897235 -4.189379 16.402909 2.149917 37.751801 4.698092 -1.628392 -5.471193 -9.910603 -22.001539 37.026520 3.987173 3.591184 -24.547107 -0.375766 -2.840420 -12.432908 -18.800050 -1.882034 -21.730781 4.796855 -1.080917 -10.147201 3.256749 -1.238578 -3.787519 -6.690698 -0.250555 4.590583 1.890568 -2.539418 12.714664 3.309940 -2.177990 0.711824 -0.100309 2.321701 7.718268 10.997676 -1.693830 19.153685 -1.870547 -10.618424 -0.502200 -5.488157 0.166159 3.362752 -2.719506 -0.167299 -15.085057 
-0.081434 0.919419 0.641683 -4.987720 3.775809 -5.131835 14.888716 2.940944 30.808258 5.647888 -1.898499 1.897037 -4.429632 -15.711849 31.735086 5.453562 2.879301 -19.600336 -1.554154 -2.109822 -14.431959 -19.175532 -2.132049 -23.148440 4.312951 -1.132009 -8.249859 1.641209 -0.649545 -4.095475 -4.291444 0.155121 4.930868 -0.625246 -1.195489 12.838720 3.230223 0.060728 0.510838 -0.313385 1.792142 5.480819 9.160180 -1.998168 17.113298 -1.121003 -5.183064 -0.274221 -5.440200 0.273931 0.802620 -1.123683 0.164923 -6.856892 
-0.084172 0.934208 0.679281 -4.346902 3.552217 -5.671163 12.689081 3.360009 23.862810 4.338077 -1.416880 3.274376 0.230421 -8.514836 24.723446 6.172767 2.015398 -14.610022 -2.812763 -1.643145 -17.507769 -18.512233 -1.994736 -22.870391 3.545014 -0.995673 -6.664114 0.099187 -0.097581 -4.478275 -2.338542 0.555754 5.155796 -2.434422 -0.232029 12.961761 3.293900 2.047565 0.354658 -0.671509 1.417928 3.426330 7.046821 -2.452718 14.794257 -0.853501 -0.253623 0.003577 -4.804848 0.352897 -1.626756 0.639251 0.505850 0.991894 
-0.086335 0.946080 0.715692 -3.594839 3.208123 -5.800055 10.477686 3.359449 18.233768 1.264557 -0.483696 -1.373117 2.474597 -2.678448 16.961554 6.535770 1.216781 -10.270223 -3.888490 -1.376669 -20.374978 -17.959968 -1.877496 -22.595470 2.800148 -0.781388 -5.615989 -1.280028 0.399524 -4.322123 -0.970233 0.890632 4.736772 -3.559893 0.361395 13.119258 3.307086 3.714147 0.218263 -0.990573 1.130204 1.762901 5.330429 -2.661101 12.566075 -0.727844 3.681092 0.241298 -3.666405 0.434940 -3.833864 2.219611 0.934443 6.496809 
-0.088517 0.951065 0.751880 -3.083442 2.773102 -5.649896 9.077641 3.225876 14.853088 -2.924318 -0.116268 -13.705063 3.286985 0.501786 12.800247 6.941854 0.526817 -6.669924 -4.481652 -1.262019 -21.974396 -18.507070 -2.070971 -23.445131 2.326554 -0.648087 -4.857904 -2.658541 0.916473 -3.776670 -0.054387 1.176624 3.889602 -4.375386 0.795910 13.198157 3.125262 5.045849 0.071005 -1.122569 0.756188 0.215717 4.121047 -2.488057 10.447992 -0.557961 6.744766 0.435673 -2.225280 0.575770 -6.264929 3.482375 1.625214 8.923092 
-0.091046 0.941620 0.789481 -3.596389 2.687437 -5.580674 9.678632 3.554284 14.010518 -8.629640 -1.142626 -31.130222 3.631297 -0.957438 17.480109 7.830005 -0.100633 -3.723885 -3.968246 -1.609709 -21.538683 -19.277866 -2.506234 -25.684683 2.616665 -0.834823 -4.463050 -3.862204 1.445424 -2.057781 0.415226 1.398627 2.739809 -4.855624 1.067520 13.030054 2.631672 5.420829 -0.062079 -1.235411 0.226209 -1.838086 3.391572 -1.222043 7.421789 -0.228999 8.746227 0.579995 -1.202526 0.733105 -8.239985 4.996726 3.258327 8.465758 
